<svg width="952" height="261" viewBox="0 0 952 261" fill="none" xmlns="http://www.w3.org/2000/svg">
<path d="M284.211 39.3636H313.012V113.153C312.977 120.161 311.207 126.328 307.704 131.653C304.235 136.944 299.435 141.079 293.303 144.057C287.206 147 280.181 148.472 272.228 148.472C265.325 148.472 259.018 147.28 253.307 144.898C247.596 142.48 243.041 138.696 239.642 133.545C236.244 128.36 234.562 121.633 234.597 113.364H263.819C263.924 116.062 264.379 118.339 265.185 120.196C266.026 122.053 267.182 123.455 268.654 124.401C270.16 125.312 271.982 125.767 274.12 125.767C276.292 125.767 278.114 125.294 279.586 124.348C281.092 123.402 282.231 122 283.002 120.143C283.773 118.251 284.176 115.921 284.211 113.153V39.3636ZM428.173 93.1818C428.173 105.165 425.843 115.273 421.183 123.507C416.523 131.706 410.234 137.925 402.315 142.165C394.397 146.369 385.567 148.472 375.827 148.472C366.016 148.472 357.151 146.352 349.233 142.112C341.349 137.838 335.078 131.601 330.418 123.402C325.793 115.168 323.48 105.095 323.48 93.1818C323.48 81.1989 325.793 71.108 330.418 62.9091C335.078 54.6752 341.349 48.456 349.233 44.2514C357.151 40.0118 366.016 37.892 375.827 37.892C385.567 37.892 394.397 40.0118 402.315 44.2514C410.234 48.456 416.523 54.6752 421.183 62.9091C425.843 71.108 428.173 81.1989 428.173 93.1818ZM398.111 93.1818C398.111 86.7348 397.252 81.304 395.535 76.8892C393.854 72.4394 391.348 69.0758 388.02 66.7983C384.726 64.4858 380.662 63.3295 375.827 63.3295C370.991 63.3295 366.909 64.4858 363.581 66.7983C360.287 69.0758 357.782 72.4394 356.065 76.8892C354.383 81.304 353.543 86.7348 353.543 93.1818C353.543 99.6288 354.383 105.077 356.065 109.527C357.782 113.942 360.287 117.305 363.581 119.618C366.909 121.895 370.991 123.034 375.827 123.034C380.662 123.034 384.726 121.895 388.02 119.618C391.348 117.305 393.854 113.942 395.535 109.527C397.252 105.077 398.111 99.6288 398.111 93.1818ZM531.864 39.3636V147H507.478L468.586 90.4489H467.955V147H438.733V39.3636H463.54L501.802 95.7045H502.643V39.3636H531.864ZM542.727 147V39.3636H620.3V62.9091H571.948V81.4091H616.306V104.955H571.948V123.455H620.09V147H542.727ZM689.856 73C689.575 69.4962 688.261 66.7633 685.914 64.8011C683.601 62.839 680.08 61.8579 675.35 61.8579C672.337 61.8579 669.867 62.2258 667.94 62.9616C666.047 63.6624 664.646 64.6259 663.735 65.8523C662.824 67.0786 662.351 68.4801 662.316 70.0568C662.246 71.3532 662.474 72.527 662.999 73.5781C663.56 74.5942 664.436 75.5227 665.627 76.3636C666.818 77.1695 668.342 77.9053 670.199 78.571C672.056 79.2367 674.264 79.8324 676.822 80.358L685.651 82.25C691.608 83.5114 696.706 85.1757 700.945 87.2429C705.185 89.3101 708.654 91.7453 711.351 94.5483C714.049 97.3163 716.029 100.435 717.29 103.903C718.587 107.372 719.252 111.156 719.288 115.256C719.252 122.333 717.483 128.325 713.979 133.23C710.475 138.135 705.465 141.867 698.948 144.425C692.466 146.982 684.67 148.261 675.56 148.261C666.205 148.261 658.041 146.877 651.069 144.109C644.131 141.341 638.735 137.084 634.881 131.338C631.062 125.557 629.135 118.164 629.1 109.159H656.85C657.025 112.453 657.849 115.221 659.32 117.463C660.792 119.705 662.859 121.405 665.522 122.561C668.22 123.717 671.426 124.295 675.14 124.295C678.258 124.295 680.868 123.91 682.971 123.139C685.073 122.368 686.667 121.3 687.753 119.933C688.84 118.567 689.4 117.008 689.435 115.256C689.4 113.609 688.857 112.172 687.806 110.946C686.79 109.685 685.108 108.563 682.761 107.582C680.413 106.566 677.242 105.62 673.248 104.744L662.526 102.432C652.996 100.365 645.48 96.9133 639.979 92.0781C634.513 87.2079 631.798 80.5682 631.833 72.1591C631.798 65.3267 633.62 59.3527 637.299 54.2372C641.013 49.0866 646.146 45.0748 652.698 42.2017C659.285 39.3286 666.836 37.892 675.35 37.892C684.039 37.892 691.555 39.3461 697.897 42.2543C704.239 45.1624 709.127 49.2618 712.56 54.5526C716.029 59.8082 717.781 65.9574 717.816 73H689.856ZM827.932 79.7273H798.29C798.08 77.2746 797.519 75.0497 796.608 73.0526C795.732 71.0554 794.506 69.3385 792.929 67.902C791.387 66.4304 789.513 65.3092 787.306 64.5383C785.098 63.7325 782.593 63.3295 779.79 63.3295C774.885 63.3295 770.733 64.5208 767.334 66.9034C763.97 69.286 761.413 72.7022 759.661 77.152C757.944 81.6018 757.085 86.9451 757.085 93.1818C757.085 99.7689 757.961 105.287 759.713 109.737C761.5 114.152 764.075 117.481 767.439 119.723C770.803 121.93 774.85 123.034 779.58 123.034C782.278 123.034 784.695 122.701 786.833 122.036C788.97 121.335 790.827 120.336 792.404 119.04C793.98 117.743 795.259 116.184 796.24 114.362C797.256 112.505 797.94 110.42 798.29 108.108L827.932 108.318C827.582 112.873 826.303 117.516 824.095 122.246C821.888 126.941 818.752 131.286 814.688 135.28C810.658 139.239 805.665 142.428 799.709 144.845C793.752 147.263 786.833 148.472 778.949 148.472C769.068 148.472 760.204 146.352 752.355 142.112C744.542 137.873 738.358 131.636 733.803 123.402C729.283 115.168 727.023 105.095 727.023 93.1818C727.023 81.1989 729.335 71.108 733.96 62.9091C738.585 54.6752 744.822 48.456 752.671 44.2514C760.519 40.0118 769.279 37.892 778.949 37.892C785.746 37.892 792.001 38.8205 797.712 40.6775C803.423 42.5346 808.433 45.25 812.743 48.8239C817.053 52.3627 820.521 56.7249 823.149 61.9105C825.777 67.0961 827.371 73.035 827.932 79.7273ZM942.502 93.1818C942.502 105.165 940.172 115.273 935.512 123.507C930.852 131.706 924.563 137.925 916.644 142.165C908.726 146.369 899.896 148.472 890.156 148.472C880.345 148.472 871.48 146.352 863.562 142.112C855.678 137.838 849.406 131.601 844.746 123.402C840.121 115.168 837.809 105.095 837.809 93.1818C837.809 81.1989 840.121 71.108 844.746 62.9091C849.406 54.6752 855.678 48.456 863.562 44.2514C871.48 40.0118 880.345 37.892 890.156 37.892C899.896 37.892 908.726 40.0118 916.644 44.2514C924.563 48.456 930.852 54.6752 935.512 62.9091C940.172 71.108 942.502 81.1989 942.502 93.1818ZM912.44 93.1818C912.44 86.7348 911.581 81.304 909.864 76.8892C908.182 72.4394 905.677 69.0758 902.349 66.7983C899.055 64.4858 894.991 63.3295 890.156 63.3295C885.32 63.3295 881.238 64.4858 877.91 66.7983C874.616 69.0758 872.111 72.4394 870.394 76.8892C868.712 81.304 867.871 86.7348 867.871 93.1818C867.871 99.6288 868.712 105.077 870.394 109.527C872.111 113.942 874.616 117.305 877.91 119.618C881.238 121.895 885.32 123.034 890.156 123.034C894.991 123.034 899.055 121.895 902.349 119.618C905.677 117.305 908.182 113.942 909.864 109.527C911.581 105.077 912.44 99.6288 912.44 93.1818ZM253.973 239L246.35 182.405H254.05L257.361 211.819L257.515 213.667H258.131L258.362 211.819L261.904 182.405H267.91L271.452 211.819L271.683 213.667H272.299L272.453 211.819L275.764 182.405H283.464L275.841 239H269.373L265.523 212.204L265.061 208.893H264.753L264.291 212.204L260.441 239H253.973ZM289.217 239V182.405H297.533V239H289.217ZM305.27 239V182.405H313.047L320.747 211.896L321.44 214.514H321.902V182.405H329.525V239H322.518L314.048 209.509L313.355 206.891H312.893V239H305.27ZM337.189 239V182.405H345.659C348.328 182.405 350.587 182.841 352.435 183.714C354.283 184.587 355.771 186.075 356.901 188.18C358.03 190.285 358.839 193.172 359.326 196.842C359.84 200.513 360.096 205.146 360.096 210.741C360.096 216.362 359.84 221.008 359.326 224.678C358.839 228.323 358.03 231.197 356.901 233.302C355.771 235.381 354.283 236.857 352.435 237.73C350.587 238.577 348.328 239 345.659 239H337.189ZM345.505 230.684C347.558 230.684 349.008 229.875 349.855 228.258C350.702 226.641 351.216 224.331 351.395 221.328C351.575 218.325 351.665 214.758 351.665 210.625C351.665 206.442 351.575 202.874 351.395 199.922C351.216 196.945 350.689 194.674 349.817 193.108C348.97 191.517 347.532 190.721 345.505 190.721V230.684ZM378.081 239.616C375.771 239.616 373.782 239.077 372.114 237.999C370.471 236.921 369.2 235.458 368.302 233.61C367.429 231.762 366.993 229.683 366.993 227.373V194.032C366.993 191.696 367.429 189.617 368.302 187.795C369.2 185.947 370.471 184.484 372.114 183.406C373.782 182.328 375.771 181.789 378.081 181.789C380.391 181.789 382.367 182.328 384.01 183.406C385.678 184.484 386.949 185.947 387.822 187.795C388.72 189.643 389.169 191.722 389.169 194.032V227.373C389.169 229.683 388.72 231.762 387.822 233.61C386.949 235.458 385.678 236.921 384.01 237.999C382.367 239.077 380.391 239.616 378.081 239.616ZM378.081 231.531C379.108 231.531 379.826 231.107 380.237 230.26C380.648 229.388 380.853 228.425 380.853 227.373V194.032C380.853 192.98 380.635 192.03 380.199 191.183C379.762 190.31 379.056 189.874 378.081 189.874C377.131 189.874 376.426 190.31 375.964 191.183C375.527 192.03 375.309 192.98 375.309 194.032V227.373C375.309 228.425 375.527 229.388 375.964 230.26C376.4 231.107 377.106 231.531 378.081 231.531ZM402.213 239L394.59 182.405H402.29L405.601 211.819L405.755 213.667H406.371L406.602 211.819L410.144 182.405H416.15L419.692 211.819L419.923 213.667H420.539L420.693 211.819L424.004 182.405H431.704L424.081 239H417.613L413.763 212.204L413.301 208.893H412.993L412.531 212.204L408.681 239H402.213ZM461.119 239.616C457.808 239.616 455.075 238.551 452.919 236.42C450.788 234.264 449.723 231.172 449.723 227.142C449.723 224.627 450.057 222.381 450.724 220.404C451.417 218.402 452.251 216.606 453.227 215.014C454.228 213.423 455.19 211.999 456.114 210.741C454.779 207.969 453.778 205.248 453.111 202.579C452.444 199.884 452.11 197.061 452.11 194.109C452.11 190.593 452.97 187.667 454.69 185.331C456.409 182.97 458.937 181.789 462.274 181.789C465.534 181.789 467.998 182.944 469.666 185.254C471.334 187.564 472.169 190.4 472.169 193.762C472.169 196.56 471.424 199.345 469.936 202.117C468.447 204.863 466.637 207.635 464.507 210.433C465.739 213.231 466.791 215.451 467.664 217.093C468.537 218.71 469.332 220.058 470.051 221.136C470.564 219.699 470.962 218.184 471.245 216.593C471.553 214.976 471.745 213.847 471.822 213.205L478.444 214.437C478.264 216.619 477.815 218.941 477.097 221.405C476.378 223.869 475.544 226.038 474.594 227.912C475.107 228.477 475.736 229.041 476.481 229.606C477.225 230.145 477.879 230.53 478.444 230.761V239.616C477.725 239.616 476.84 239.308 475.788 238.692C474.735 238.076 473.721 237.357 472.746 236.536C471.796 235.715 471.078 234.996 470.59 234.38C469.409 235.946 468.113 237.216 466.702 238.191C465.29 239.141 463.429 239.616 461.119 239.616ZM461.504 232.378C462.556 232.378 463.442 232.07 464.161 231.454C464.879 230.838 465.559 230.068 466.201 229.144C465.174 227.476 464.122 225.756 463.044 223.985C461.992 222.214 460.862 220.238 459.656 218.056C459.091 219.006 458.629 220.25 458.27 221.79C457.911 223.305 457.731 224.665 457.731 225.871C457.731 227.514 458.039 229.016 458.655 230.376C459.271 231.711 460.221 232.378 461.504 232.378ZM461.427 203.349C462.351 201.912 463.211 200.346 464.007 198.652C464.802 196.958 465.2 195.367 465.2 193.878C465.2 192.364 464.995 191.08 464.584 190.028C464.173 188.95 463.403 188.411 462.274 188.411C461.17 188.411 460.4 188.963 459.964 190.066C459.528 191.17 459.31 192.479 459.31 193.993C459.31 195.585 459.502 197.163 459.887 198.729C460.298 200.295 460.811 201.835 461.427 203.349ZM498.398 239V182.405H506.714C509.871 182.405 512.502 183.098 514.607 184.484C516.737 185.87 518.329 187.833 519.381 190.374C520.433 192.915 520.959 195.906 520.959 199.345C520.959 202.784 520.408 205.749 519.304 208.238C518.2 210.728 516.583 212.679 514.453 214.09C512.348 215.476 509.769 216.234 506.714 216.362V239H498.398ZM506.714 207.892C508.177 207.892 509.332 207.61 510.179 207.045C511.026 206.455 511.63 205.531 511.989 204.273C512.374 203.015 512.566 201.398 512.566 199.422C512.566 197.42 512.374 195.79 511.989 194.532C511.63 193.275 511.014 192.351 510.141 191.76C509.294 191.17 508.152 190.875 506.714 190.875V207.892ZM527.009 239V182.405H535.325C540.304 182.405 543.974 183.791 546.336 186.563C548.697 189.309 549.878 193.365 549.878 198.729C549.878 201.912 549.313 204.671 548.184 207.006C547.08 209.316 545.733 211.01 544.141 212.088L549.801 239H541.485L536.788 215.13H535.325V239H527.009ZM535.325 207.43C536.865 207.43 538.084 207.096 538.982 206.429C539.881 205.736 540.522 204.761 540.907 203.503C541.292 202.245 541.485 200.757 541.485 199.037C541.485 196.342 541.036 194.276 540.137 192.838C539.265 191.375 537.66 190.644 535.325 190.644V207.43ZM556.07 239V182.405H575.089V190.952H564.386V206.198H572.086V214.514H564.386V230.453H575.089V239H556.07ZM592.811 239.616C590.526 239.616 588.627 239.244 587.113 238.499C585.598 237.729 584.405 236.626 583.532 235.188C582.66 233.751 582.031 232.019 581.646 229.991C581.286 227.963 581.107 225.679 581.107 223.138L589.269 222.368C589.269 223.6 589.307 224.793 589.384 225.948C589.487 227.078 589.654 228.104 589.885 229.028C590.141 229.927 590.501 230.645 590.963 231.184C591.45 231.723 592.066 231.993 592.811 231.993C594.043 231.993 594.915 231.428 595.429 230.299C595.942 229.144 596.199 227.758 596.199 226.141C596.199 224.524 595.775 222.843 594.928 221.097C594.081 219.352 593.067 217.697 591.887 216.131C589.885 213.462 588.127 210.985 586.612 208.7C585.124 206.416 583.956 204.17 583.109 201.963C582.287 199.756 581.877 197.446 581.877 195.033C581.877 193.134 582.121 191.388 582.608 189.797C583.096 188.18 583.802 186.781 584.726 185.6C585.675 184.394 586.818 183.457 588.152 182.79C589.487 182.123 591.014 181.789 592.734 181.789C594.864 181.789 596.661 182.148 598.124 182.867C599.612 183.586 600.806 184.612 601.704 185.947C602.628 187.282 603.296 188.873 603.706 190.721C604.143 192.543 604.361 194.571 604.361 196.804L596.199 197.574C596.199 196.624 596.147 195.675 596.045 194.725C595.968 193.75 595.814 192.864 595.583 192.068C595.352 191.273 595.018 190.631 594.582 190.143C594.145 189.656 593.581 189.412 592.888 189.412C591.81 189.412 591.065 189.874 590.655 190.798C590.244 191.696 590.039 192.98 590.039 194.648C590.039 196.804 590.616 198.883 591.771 200.885C592.926 202.887 594.479 205.223 596.43 207.892C598.765 211.049 600.665 213.949 602.128 216.593C603.616 219.237 604.361 222.163 604.361 225.371C604.361 227.399 604.143 229.285 603.706 231.03C603.27 232.75 602.577 234.252 601.627 235.535C600.703 236.818 599.51 237.819 598.047 238.538C596.609 239.257 594.864 239.616 592.811 239.616ZM620.368 239.616C618.084 239.616 616.185 239.244 614.67 238.499C613.156 237.729 611.962 236.626 611.09 235.188C610.217 233.751 609.588 232.019 609.203 229.991C608.844 227.963 608.664 225.679 608.664 223.138L616.826 222.368C616.826 223.6 616.865 224.793 616.942 225.948C617.044 227.078 617.211 228.104 617.442 229.028C617.699 229.927 618.058 230.645 618.52 231.184C619.008 231.723 619.624 231.993 620.368 231.993C621.6 231.993 622.473 231.428 622.986 230.299C623.5 229.144 623.756 227.758 623.756 226.141C623.756 224.524 623.333 222.843 622.486 221.097C621.639 219.352 620.625 217.697 619.444 216.131C617.442 213.462 615.684 210.985 614.17 208.7C612.681 206.416 611.513 204.17 610.666 201.963C609.845 199.756 609.434 197.446 609.434 195.033C609.434 193.134 609.678 191.388 610.166 189.797C610.653 188.18 611.359 186.781 612.283 185.6C613.233 184.394 614.375 183.457 615.71 182.79C617.044 182.123 618.572 181.789 620.291 181.789C622.422 181.789 624.218 182.148 625.681 182.867C627.17 183.586 628.363 184.612 629.262 185.947C630.186 187.282 630.853 188.873 631.264 190.721C631.7 192.543 631.918 194.571 631.918 196.804L623.756 197.574C623.756 196.624 623.705 195.675 623.602 194.725C623.525 193.75 623.371 192.864 623.14 192.068C622.909 191.273 622.576 190.631 622.139 190.143C621.703 189.656 621.138 189.412 620.445 189.412C619.367 189.412 618.623 189.874 618.212 190.798C617.802 191.696 617.596 192.98 617.596 194.648C617.596 196.804 618.174 198.883 619.329 200.885C620.484 202.887 622.037 205.223 623.987 207.892C626.323 211.049 628.222 213.949 629.685 216.593C631.174 219.237 631.918 222.163 631.918 225.371C631.918 227.399 631.7 229.285 631.264 231.03C630.827 232.75 630.134 234.252 629.185 235.535C628.261 236.818 627.067 237.819 625.604 238.538C624.167 239.257 622.422 239.616 620.368 239.616ZM649.004 239.616C646.668 239.616 644.666 239.077 642.998 237.999C641.355 236.921 640.098 235.458 639.225 233.61C638.352 231.762 637.916 229.683 637.916 227.373V182.405H646.232V227.373C646.232 228.477 646.45 229.452 646.886 230.299C647.323 231.12 648.029 231.531 649.004 231.531C650.031 231.531 650.749 231.12 651.16 230.299C651.571 229.452 651.776 228.477 651.776 227.373V182.405H660.092V227.373C660.092 229.683 659.643 231.762 658.744 233.61C657.872 235.458 656.601 236.921 654.933 237.999C653.29 239.077 651.314 239.616 649.004 239.616ZM667.804 239V182.405H676.12C681.1 182.405 684.77 183.791 687.131 186.563C689.493 189.309 690.673 193.365 690.673 198.729C690.673 201.912 690.109 204.671 688.979 207.006C687.876 209.316 686.528 211.01 684.937 212.088L690.596 239H682.28L677.583 215.13H676.12V239H667.804ZM676.12 207.43C677.66 207.43 678.88 207.096 679.778 206.429C680.676 205.736 681.318 204.761 681.703 203.503C682.088 202.245 682.28 200.757 682.28 199.037C682.28 196.342 681.831 194.276 680.933 192.838C680.06 191.375 678.456 190.644 676.12 190.644V207.43ZM696.866 239V182.405H715.885V190.952H705.182V206.198H712.882V214.514H705.182V230.453H715.885V239H696.866ZM742.715 239L735.092 182.405H742.792L746.103 211.819L746.257 213.667H746.873L747.104 211.819L750.646 182.405H756.652L760.194 211.819L760.425 213.667H761.041L761.195 211.819L764.506 182.405H772.206L764.583 239H758.115L754.265 212.204L753.803 208.893H753.495L753.033 212.204L749.183 239H742.715ZM773.144 239L781.691 182.405H791.855L800.402 239H792.317L790.777 227.45H782.769L781.229 239H773.144ZM783.924 218.672H789.622L787.235 199.653L787.004 196.65H786.542L786.311 199.653L783.924 218.672ZM815.602 239.616C813.318 239.616 811.419 239.244 809.904 238.499C808.39 237.729 807.196 236.626 806.324 235.188C805.451 233.751 804.822 232.019 804.437 229.991C804.078 227.963 803.898 225.679 803.898 223.138L812.06 222.368C812.06 223.6 812.099 224.793 812.176 225.948C812.278 227.078 812.445 228.104 812.676 229.028C812.933 229.927 813.292 230.645 813.754 231.184C814.242 231.723 814.858 231.993 815.602 231.993C816.834 231.993 817.707 231.428 818.22 230.299C818.734 229.144 818.99 227.758 818.99 226.141C818.99 224.524 818.567 222.843 817.72 221.097C816.873 219.352 815.859 217.697 814.678 216.131C812.676 213.462 810.918 210.985 809.404 208.7C807.915 206.416 806.747 204.17 805.9 201.963C805.079 199.756 804.668 197.446 804.668 195.033C804.668 193.134 804.912 191.388 805.4 189.797C805.887 188.18 806.593 186.781 807.517 185.6C808.467 184.394 809.609 183.457 810.944 182.79C812.278 182.123 813.806 181.789 815.525 181.789C817.656 181.789 819.452 182.148 820.915 182.867C822.404 183.586 823.597 184.612 824.496 185.947C825.42 187.282 826.087 188.873 826.498 190.721C826.934 192.543 827.152 194.571 827.152 196.804L818.99 197.574C818.99 196.624 818.939 195.675 818.836 194.725C818.759 193.75 818.605 192.864 818.374 192.068C818.143 191.273 817.81 190.631 817.373 190.143C816.937 189.656 816.372 189.412 815.679 189.412C814.601 189.412 813.857 189.874 813.446 190.798C813.036 191.696 812.83 192.98 812.83 194.648C812.83 196.804 813.408 198.883 814.563 200.885C815.718 202.887 817.271 205.223 819.221 207.892C821.557 211.049 823.456 213.949 824.919 216.593C826.408 219.237 827.152 222.163 827.152 225.371C827.152 227.399 826.934 229.285 826.498 231.03C826.061 232.75 825.368 234.252 824.419 235.535C823.495 236.818 822.301 237.819 820.838 238.538C819.401 239.257 817.656 239.616 815.602 239.616ZM833.15 239V182.405H841.466V205.813H847.934V182.405H856.25V239H847.934V214.36H841.466V239H833.15ZM863.941 239V182.405H872.257V239H863.941ZM879.994 239V182.405H887.771L895.471 211.896L896.164 214.514H896.626V182.405H904.249V239H897.242L888.772 209.509L888.079 206.891H887.617V239H879.994ZM921.307 239.616C919.022 239.616 917.161 239.077 915.724 237.999C914.287 236.921 913.222 235.458 912.529 233.61C911.861 231.762 911.528 229.683 911.528 227.373V194.032C911.528 191.748 911.977 189.681 912.875 187.833C913.773 185.985 915.057 184.522 916.725 183.444C918.393 182.341 920.357 181.789 922.616 181.789C924.335 181.789 925.875 182.11 927.236 182.751C928.622 183.367 929.789 184.24 930.739 185.369C931.714 186.499 932.446 187.808 932.934 189.296C933.447 190.759 933.704 192.338 933.704 194.032V202.733H925.388V194.032C925.388 192.903 925.182 191.927 924.772 191.106C924.361 190.285 923.642 189.874 922.616 189.874C921.615 189.874 920.896 190.31 920.46 191.183C920.049 192.03 919.844 192.98 919.844 194.032V228.066C919.844 229.17 920.062 230.145 920.498 230.992C920.934 231.813 921.64 232.224 922.616 232.224C923.642 232.224 924.361 231.813 924.772 230.992C925.182 230.145 925.388 229.17 925.388 228.066V218.595H922.077V210.818H933.704V239H928.776L927.775 235.92C927.056 237.075 926.132 237.986 925.003 238.653C923.899 239.295 922.667 239.616 921.307 239.616Z" fill="#0066CC"/>
<path fill-rule="evenodd" clip-rule="evenodd" d="M176.801 231.449L176.801 90.2907L88.4005 22L88.4005 238L170.171 238C173.832 238 176.801 235.067 176.801 231.449ZM138.5 138.98C137.5 116.26 135 111.427 114.5 109.424C135 109.493 137.5 101.759 138.5 82.4233C139.5 101.759 143.5 108.526 162.5 109.424C143.5 111.427 140.5 116.26 138.5 138.98ZM113.5 96.9249C112.782 87.5981 111.245 83.6514 103.5 82.4233C111.234 82.4531 112.688 78.7155 113.5 69.8553C114.302 78.3475 115.754 81.9371 123 82.4233C115.735 83.5523 114.58 87.9067 113.5 96.9249ZM114.5 149.614C113.782 140.287 112.245 136.341 104.5 135.112C112.234 135.142 113.688 131.405 114.5 122.544C115.302 131.037 116.754 134.626 124 135.112C116.735 136.241 115.58 140.596 114.5 149.614Z" fill="#FF5C00"/>
<path d="M124 49.5012L150 69.5867V37.4684L124 37.4684V49.5012Z" fill="#0066CC"/>
<path fill-rule="evenodd" clip-rule="evenodd" d="M6.63029 238C2.96831 238 0.000274658 235.067 0.000274658 231.449L0.000274658 90.2907L88.4005 22L88.4005 238H69L69 145.19L20 145.19L20 238H6.63029Z" fill="#0066CC"/>
</svg>
